<svg xmlns="http://www.w3.org/2000/svg" width="18" height="18" viewBox="0 0 18 18">
  <path id="pencil" d="M13.664.164a.562.562,0,0,1,.8,0l3.375,3.375a.562.562,0,0,1,0,.8L6.585,15.585a.562.562,0,0,1-.189.124L.772,17.959a.562.562,0,0,1-.731-.731L2.29,11.6a.562.562,0,0,1,.124-.189L13.664.164ZM12.607,2.812l2.58,2.58,1.455-1.455-2.58-2.58Zm1.784,3.375-2.58-2.58L4.5,10.92v.33h.562a.562.562,0,0,1,.562.562v.562h.562a.562.562,0,0,1,.562.562V13.5h.33l7.312-7.312ZM3.411,12.009l-.119.119-1.719,4.3,4.3-1.719.119-.119a.562.562,0,0,1-.366-.526V13.5H5.062a.562.562,0,0,1-.562-.562v-.562H3.937a.562.562,0,0,1-.526-.366Z" transform="translate(0 0.001)" fill="#202529"/>
</svg>
