<svg id="trash" xmlns="http://www.w3.org/2000/svg" width="18" height="20.769" viewBox="0 0 18 20.769">
  <path id="パス_55" data-name="パス 55" d="M5.5,5.5A.5.5,0,0,1,6,6v6a.5.5,0,0,1-1,0V6A.5.5,0,0,1,5.5,5.5ZM8,5.5a.5.5,0,0,1,.5.5v6a.5.5,0,0,1-1,0V6A.5.5,0,0,1,8,5.5ZM11,6a.5.5,0,0,0-1,0v6a.5.5,0,0,0,1,0Z" transform="translate(1 3.966)" fill="#202529"/>
  <path id="パス_56" data-name="パス 56" d="M19.5,4.154a1.385,1.385,0,0,1-1.385,1.385h-.692V18a2.769,2.769,0,0,1-2.769,2.769H6.346A2.769,2.769,0,0,1,3.577,18V5.538H2.885A1.385,1.385,0,0,1,1.5,4.154V2.769A1.385,1.385,0,0,1,2.885,1.385H7.731A1.385,1.385,0,0,1,9.115,0h2.769a1.385,1.385,0,0,1,1.385,1.385h4.846A1.385,1.385,0,0,1,19.5,2.769ZM5.125,5.538l-.163.082V18a1.385,1.385,0,0,0,1.385,1.385h8.308A1.385,1.385,0,0,0,16.038,18V5.62l-.163-.082ZM2.885,4.154V2.769H18.115V4.154Z" transform="translate(-1.5)" fill="#202529"/>
</svg>
